# xmcd CD database file
#
# Track frame offsets:
#	150
#	19880
#	38762
#	58490
#
# Disc length: 1029 seconds
#
# Revision: 0
# Processed by: cddbd v1.5.1PL0 Copyright (c) Steve Scherf et al.
# Submitted via: CDex 1.51
#
DISCID=32040304
DTITLE=Fumina Hara - 恋をはじめましょう
DYEAR=2001
DGENRE=JPop
TTITLE0=恋をはじめましょう
TTITLE1=青空と太陽と風のなか
TTITLE2=恋をはじめましょう (Instrumental)
TTITLE3=青空と太陽と風のなか (Instrumental)
EXTD=YEAR: 2001
EXTT0=
EXTT1=
EXTT2=
EXTT3=
PLAYORDER=
